<?xml version="1.0" encoding="utf-8"?>
<!-- Generator: Adobe Illustrator 22.0.1, SVG Export Plug-In . SVG Version: 6.00 Build 0)  -->
<svg version="1.1" id="Layer_1" xmlns="http://www.w3.org/2000/svg" xmlns:xlink="http://www.w3.org/1999/xlink" x="0px" y="0px"
	 viewBox="0 0 17 17" style="enable-background:new 0 0 17 17;" xml:space="preserve">
<style type="text/css">
	.st0{fill:none;stroke:#659AD2;stroke-linecap:round;stroke-linejoin:round;stroke-miterlimit:10;}
	.st1{fill:#659AD2;}
</style>
<g>
	<g>
		<g>
			<g>
				<polygon class="st0" points="8.7,13.9 8.9,15.3 5.7,15.3 6.1,14.1 5.2,11.5 				"/>
				<path class="st0" d="M8.7,13.9c1.5,0,3.8-1.1,3.8-3.4c0-1.8-1.5-3.1-3.1-3.1C8.5,7.5,8,7.8,6.7,8.1C4.3,8.5,2.3,7.6,1,6
					c0.5-0.2,4.3-1.4,5.1-1.7C7.3,4,8.9,3.8,10,3.8c3.4,0,5.8,2.8,5.8,5.8c0,4-3.3,5.8-6.8,5.8"/>
			</g>
			<path class="st0" d="M8.2,7.7c1-0.3,1.6-1.3,1.6-2c0-1.1-0.9-1.8-1.9-1.7"/>
		</g>
		<path class="st0" d="M12.2,9.2c1.4,0.4,3.1-1.1,2.8-2.4"/>
		<path class="st0" d="M12.3,11.7c0.6,0.8,1.9,1.1,2.8,0.6"/>
		<path class="st0" d="M1,6C0.4,5.1,0.8,3.8,2,3.4s4.2-1.3,4.2-1.3"/>
		<circle class="st1" cx="6" cy="6" r="0.5"/>
	</g>
</g>
</svg>
