<?xml version="1.0" encoding="utf-8"?>
<!-- Generator: Adobe Illustrator 22.0.1, SVG Export Plug-In . SVG Version: 6.00 Build 0)  -->
<svg version="1.1" id="Layer_1" xmlns="http://www.w3.org/2000/svg" xmlns:xlink="http://www.w3.org/1999/xlink" x="0px" y="0px"
	 viewBox="0 0 94 50.2" style="enable-background:new 0 0 94 50.2;" xml:space="preserve">
<style type="text/css">
	.st0{display:none;fill:#E6E7E8;}
	.st1{fill:#FCBC86;}
	.st2{fill:#FFFFFF;}
</style>
<g>
	<circle class="st0" cx="49.5" cy="20.4" r="60"/>
	<g>
		<polygon class="st1" points="37.9,31.8 35.7,41.7 60.7,42.7 		"/>
		<polygon class="st1" points="60.8,43.5 49.4,48.9 36.7,42.6 		"/>
		<polygon class="st1" points="61.9,43.7 50.8,49.1 62.5,49.8 		"/>
		<polygon class="st1" points="62.5,41.6 63.3,49.8 72.1,50.7 		"/>
		<polygon class="st1" points="63,40.9 72.4,49.9 69.5,37.1 		"/>
		<polygon class="st1" points="70.4,37.4 73.2,50.4 83.7,46.2 		"/>
		<polygon class="st1" points="71,37 84.3,45.7 90.4,36.8 		"/>
		<polygon class="st1" points="70.3,36.2 89.4,36.1 73.4,28.2 		"/>
		<polygon class="st1" points="74.1,27.7 90.8,35.9 93.1,25 		"/>
		<polygon class="st2" points="73.9,26.9 93.1,24.3 88.4,11.6 		"/>
		<polygon class="st2" points="73.4,26.3 88,10.9 77.6,4.4 		"/>
		<polygon class="st2" points="76.6,5.3 72.5,26.9 60.5,24.7 		"/>
		<polygon class="st2" points="76.6,4 60.3,23.7 61.8,0.3 		"/>
		<polygon class="st2" points="61.1,0.3 59.5,24.3 12.7,2.9 		"/>
		<path class="st2" d="M16,5.3L-0.2,6.8l13.3,8.8l41.7,7.5L16,5.3z M15.4,10.5c-1,0-1.9-0.8-1.9-1.9s0.8-1.9,1.9-1.9
			c1,0,1.9,0.8,1.9,1.9S16.4,10.5,15.4,10.5z"/>
		<polygon class="st2" points="24.7,18.5 18.9,28.1 27.2,19 		"/>
		<polygon class="st2" points="30.9,19.7 25.1,29.3 33.4,20.2 		"/>
		<polygon class="st2" points="37.1,20.9 31.3,30.5 39.6,21.4 		"/>
	</g>
</g>
</svg>
