<?xml version="1.0" encoding="utf-8"?>
<!-- Generator: Adobe Illustrator 22.0.1, SVG Export Plug-In . SVG Version: 6.00 Build 0)  -->
<svg version="1.1" id="Layer_1" xmlns="http://www.w3.org/2000/svg" xmlns:xlink="http://www.w3.org/1999/xlink" x="0px" y="0px"
	 viewBox="0 0 93.4 50.5" style="enable-background:new 0 0 93.4 50.5;" xml:space="preserve">
<style type="text/css">
	.st0{display:none;fill:#E6E7E8;}
	.st1{fill:#FCBC86;}
</style>
<g>
	<circle class="st0" cx="48.7" cy="20" r="60"/>
	<g>
		<polygon class="st1" points="38.1,31.4 35.9,41.3 60.8,42.3 		"/>
		<polygon class="st1" points="61,43 49.6,48.5 36.9,42.1 		"/>
		<polygon class="st1" points="62.1,43.3 51,48.7 62.7,49.3 		"/>
		<polygon class="st1" points="62.7,41.2 63.5,49.4 72.3,50.3 		"/>
		<polygon class="st1" points="63.2,40.5 72.6,49.5 69.7,36.7 		"/>
		<polygon class="st1" points="70.6,37 73.4,50 83.8,45.8 		"/>
		<polygon class="st1" points="71.2,36.6 84.5,45.3 90.6,36.4 		"/>
		<polygon class="st1" points="70.5,35.8 89.6,35.7 73.6,27.8 		"/>
		<polygon class="st1" points="74.3,27.3 91,35.5 93.3,24.6 		"/>
		<polygon class="st1" points="74.1,26.5 93.3,23.9 88.6,11.2 		"/>
		<polygon class="st1" points="73.6,25.8 88.2,10.5 77.8,4 		"/>
		<polygon class="st1" points="76.8,4.8 72.7,26.5 60.7,24.2 		"/>
		<polygon class="st1" points="76.8,3.6 60.4,23.3 62,-0.1 		"/>
		<polygon class="st1" points="61.3,-0.1 59.7,23.9 12.9,2.5 		"/>
		<path class="st1" d="M16.1,4.8L0,6.4l13.3,8.8l41.7,7.5L16.1,4.8z M15.6,10.1c-1,0-1.9-0.8-1.9-1.9s0.8-1.9,1.9-1.9
			c1,0,1.9,0.8,1.9,1.9S16.6,10.1,15.6,10.1z"/>
		<polygon class="st1" points="24.9,18.1 19.1,27.7 27.4,18.6 		"/>
		<polygon class="st1" points="31.1,19.3 25.3,28.9 33.6,19.8 		"/>
		<polygon class="st1" points="37.3,20.5 31.5,30.1 39.7,21 		"/>
	</g>
</g>
</svg>
