<?xml version="1.0" encoding="utf-8"?>
<!-- Generator: Adobe Illustrator 22.0.1, SVG Export Plug-In . SVG Version: 6.00 Build 0)  -->
<svg version="1.1" id="Layer_1" xmlns="http://www.w3.org/2000/svg" xmlns:xlink="http://www.w3.org/1999/xlink" x="0px" y="0px"
	 viewBox="0 0 80 80" style="enable-background:new 0 0 80 80;" xml:space="preserve">
<style type="text/css">
	.st0{fill:#FCBC86;}
	.st1{fill:#FFFFFF;}
</style>
<g>
	<circle class="st0" cx="40" cy="40.2" r="39.2"/>
	<g>
		<polygon class="st1" points="33.1,47.7 31.6,54.2 47.9,54.8 		"/>
		<polygon class="st1" points="48.1,55.3 40.6,58.9 32.3,54.7 		"/>
		<polygon class="st1" points="48.8,55.5 41.5,59 49.2,59.4 		"/>
		<polygon class="st1" points="49.2,54.1 49.7,59.5 55.4,60.1 		"/>
		<polygon class="st1" points="49.5,53.7 55.6,59.6 53.7,51.2 		"/>
		<polygon class="st1" points="54.3,51.4 56.1,59.9 63,57.1 		"/>
		<polygon class="st1" points="54.7,51.1 63.4,56.8 67.4,51 		"/>
		<polygon class="st1" points="54.3,50.6 66.7,50.5 56.3,45.4 		"/>
		<polygon class="st1" points="56.7,45 67.6,50.4 69.1,43.3 		"/>
		<polygon class="st1" points="56.6,44.5 69.1,42.8 66.1,34.5 		"/>
		<polygon class="st1" points="56.3,44.1 65.8,34.1 59,29.8 		"/>
		<polygon class="st1" points="58.4,30.4 55.7,44.5 47.8,43 		"/>
		<polygon class="st1" points="58.4,29.6 47.7,42.4 48.7,27.1 		"/>
		<polygon class="st1" points="48.2,27.1 47.2,42.8 16.6,28.8 		"/>
		<path class="st1" d="M18.7,30.4l-10.5,1l8.7,5.7L44.2,42L18.7,30.4z M18.4,33.8c-0.7,0-1.2-0.6-1.2-1.2c0-0.7,0.6-1.2,1.2-1.2
			c0.7,0,1.2,0.6,1.2,1.2C19.6,33.2,19.1,33.8,18.4,33.8z"/>
		<polygon class="st1" points="24.5,39 20.7,45.3 26.1,39.3 		"/>
		<polygon class="st1" points="28.5,39.8 24.7,46.1 30.1,40.1 		"/>
		<polygon class="st1" points="32.6,40.6 28.8,46.8 34.2,40.9 		"/>
	</g>
</g>
</svg>
