<?xml version="1.0" encoding="utf-8"?>
<!-- Generator: Adobe Illustrator 22.0.1, SVG Export Plug-In . SVG Version: 6.00 Build 0)  -->
<svg version="1.1" id="Layer_1" xmlns="http://www.w3.org/2000/svg" xmlns:xlink="http://www.w3.org/1999/xlink" x="0px" y="0px"
	 viewBox="0 0 100 100" style="enable-background:new 0 0 100 100;" xml:space="preserve">
<style type="text/css">
	.st0{fill:#E6E7E8;}
	.st1{fill:#FCBC86;}
	.st2{fill:#FFFFFF;}
</style>
<g>
	<circle class="st0" cx="50.1" cy="50.1" r="49.9"/>
	<g>
		<polygon class="st1" points="41.3,59.6 39.4,67.9 60.2,68.7 		"/>
		<polygon class="st1" points="60.3,69.3 50.8,73.8 40.3,68.6 		"/>
		<polygon class="st1" points="61.2,69.5 51.9,74 61.7,74.5 		"/>
		<polygon class="st1" points="61.7,67.8 62.4,74.6 69.6,75.3 		"/>
		<polygon class="st1" points="62.1,67.2 69.9,74.7 67.5,64.1 		"/>
		<polygon class="st1" points="68.3,64.3 70.6,75.1 79.3,71.6 		"/>
		<polygon class="st1" points="68.7,63.9 79.8,71.2 84.9,63.8 		"/>
		<polygon class="st1" points="68.2,63.2 84,63.2 70.8,56.6 		"/>
		<polygon class="st1" points="71.3,56.2 85.2,63 87.1,54 		"/>
		<polygon class="st2" points="71.2,55.6 87.1,53.4 83.2,42.8 		"/>
		<polygon class="st2" points="70.8,55 82.9,42.3 74.2,36.8 		"/>
		<polygon class="st2" points="73.4,37.5 70,55.6 60,53.7 		"/>
		<polygon class="st2" points="73.4,36.5 59.8,52.9 61.1,33.4 		"/>
		<polygon class="st2" points="60.5,33.4 59.2,53.4 20.3,35.6 		"/>
		<path class="st2" d="M23,37.5L9.6,38.9l11.1,7.3l34.7,6.2L23,37.5z M22.5,41.9c-0.9,0-1.6-0.7-1.6-1.6c0-0.9,0.7-1.6,1.6-1.6
			c0.9,0,1.6,0.7,1.6,1.6C24.1,41.2,23.4,41.9,22.5,41.9z"/>
		<polygon class="st2" points="30.3,48.6 25.5,56.5 32.3,49 		"/>
		<polygon class="st2" points="35.5,49.6 30.6,57.5 37.5,50 		"/>
		<polygon class="st2" points="40.6,50.6 35.8,58.5 42.6,51 		"/>
	</g>
</g>
</svg>
