<?xml version="1.0" encoding="utf-8"?>
<!-- Generator: Adobe Illustrator 25.0.0, SVG Export Plug-In . SVG Version: 6.00 Build 0)  -->
<svg version="1.1" id="Layer_1" xmlns="http://www.w3.org/2000/svg" xmlns:xlink="http://www.w3.org/1999/xlink" x="0px" y="0px"
	 viewBox="0 0 1000 1000" style="enable-background:new 0 0 1000 1000;" xml:space="preserve">
<style type="text/css">
	.st0{fill:#56ABE4;}
</style>
<g>
	<path class="st0" d="M559.3,538.6c-26.8,0-47.9,9.5-63.4,28.3c-15.5,18.9-23.2,44.8-23.2,77.8c0,31.9,7.8,57.1,23.5,75.5
		c15.6,18.4,36.7,27.6,63.2,27.6c27.3,0,48-9,62.3-27s21.4-43.8,21.4-77.4c0-33.8-7.1-59.7-21.4-77.8
		C607.3,547.7,586.5,538.6,559.3,538.6L559.3,538.6z M777.5,380.3c0,0,105.4-28.1,173.1,40.1C974.5,401,990,369.9,990,335
		c0-58.7-28.6-111.5-106.4-92.2c-14.9-55.3-62.6-110.3-125.2-110.3c-53.4,0-95.8,27.5-116.5,74.3
		C664.9,217.7,744.9,263.1,777.5,380.3L777.5,380.3z M741,425.4c-32.2-122-134.5-243.3-269-243.3c-156.2,0-268.5,112.6-279.3,292
		C94.9,474.1,10,548.9,10,661.5s74.7,206,166.8,206c5.4,0,587,0,587,0c113.9,0,205.5-108.5,205.5-236.7
		C969.3,501.2,908,382.8,741,425.4L741,425.4z M389.5,560.2c-19-14.4-39.8-21.6-62.9-21.6c-27.3,0-49.3,9.8-66.4,29.2
		c-17.1,19.5-25.6,45.4-25.6,77.9c0,31.9,8.1,56.9,24.3,75c16.1,18.1,37.7,27.1,65.2,27.1c23.2,0,46.5-7.8,65.5-23.6v45.2
		c-19,12.7-45.2,19.1-74.3,19.1c-38.9,0-70.1-12.9-93.9-38.6c-23.7-25.8-35.5-59.1-35.5-100.1c0-45.5,12.8-82.1,38.4-110
		C249.9,512,283.7,498,326.6,498c24.6,0,43.9,4.5,63,13.5L389.5,560.2L389.5,560.2z M654.9,748c-24.5,26.9-57.4,40.4-98.6,40.4
		c-40.3,0-72.4-13.1-96.4-39.2c-24-26.1-36-60.4-36-103.1c0-45.8,12.4-82,37.2-108.5c24.8-26.5,58.5-39.8,101-39.8
		c40.4,0,72.1,12.8,95.1,38.2c23,25.5,34.4,60.7,34.4,105.7C691.7,685.8,679.4,721.1,654.9,748L654.9,748z M811.2,767.4v10.2h-88.4
		v-14.3l43.2-38.9c10.9-10.7,20-19.2,23.7-25.5c3.7-6.2,6.4-12.7,6.4-19.4c0-7.6-1.7-13.4-6-17.6c-4.3-4.1-12.5-6.1-20.7-6.1
		c-12.1,0-26.5,5.1-36.5,15.2v-17.2c10.1-8.1,25.2-12.2,39.5-12.2c12.2,0,22.9,3.2,30,9.8c7.1,6.5,11.1,15.3,11.1,26.3
		c0,8.3-2,16.4-6.5,24.4s-12.3,18.2-25,30.5l-30.1,29.8v4.8L811.2,767.4L811.2,767.4z"/>
</g>
</svg>
