<?xml version="1.0" encoding="utf-8"?>
<!-- Generator: Adobe Illustrator 22.0.1, SVG Export Plug-In . SVG Version: 6.00 Build 0)  -->
<svg version="1.1" id="Layer_1" xmlns="http://www.w3.org/2000/svg" xmlns:xlink="http://www.w3.org/1999/xlink" x="0px" y="0px"
	 viewBox="0 0 1026.4 640.2" style="enable-background:new 0 0 1026.4 640.2;" xml:space="preserve">
<style type="text/css">
	.st0{fill:#659AD2;}
	.st1{fill:#E6E7E8;}
	.st2{fill:#92C5EB;}
	.st3{fill:#D0D2D3;}
	.st4{fill:#768B90;}
	.st5{fill:#CCCCCC;}
	.st6{fill:#FFFFFF;}
	.st7{fill:#DE773F;}
	.st8{fill:none;stroke:#666666;stroke-miterlimit:10;}
	.st9{font-family:'mplus-2p-regular';}
	.st10{font-size:10px;}
	.st11{font-size:12px;}
	.st12{fill:#666666;}
	.st13{display:none;}
	.st14{display:inline;fill:#659AD2;}
	.st15{font-family:'mplus-2p-light';}
	.st16{font-size:14px;}

	.pond-normal{
		fill: #659ad2;
	}
	.pond-abnormal{
		fill: #de773f;
	}
	.clickable{
		cursor: pointer;
	}
</style>
<rect x="1" y="1.4" class="st0" width="1024.5" height="638"/>
<line class="st0" x1="746.5" y1="639.4" x2="746.5" y2="1.4"/>
<g>
	<polygon class="st1" points="31,439.4 1000,439.4 997.9,425.6 938.1,266.7 790.7,85.4 746.8,106.5 823.8,266.9 723.1,266.9 
		723.1,355.1 39.9,355.1 	"/>
	<rect x="162.7" y="359.7" class="st2" width="174.5" height="75.1"/>
	<polygon class="st2" points="136.2,434.9 36.1,434.9 44,359.7 140.1,359.7 	"/>
	<g>
		<path class="st3" id="f1-p-1" d="M407.5,363.2c-1.2,0-57.7,0-59,0c-3.8,0-6.8,3-6.8,6.8c0,3.8,3,6.8,6.8,6.8c1.2,0,57.7,0,59,0
			c3.8,0,6.8-3,6.8-6.8C414.3,366.2,411.3,363.2,407.5,363.2z"/>
		<path class="st3" id="f1-p-2" d="M407.5,377.7c-1.2,0-57.7,0-59,0c-3.8,0-6.8,3-6.8,6.8c0,3.8,3,6.8,6.8,6.8c1.2,0,57.7,0,59,0
			c3.8,0,6.8-3,6.8-6.8C414.3,380.7,411.3,377.7,407.5,377.7z"/>
		<path class="st3" id="f1-p-3" d="M407.5,392.2c-1.2,0-57.7,0-59,0c-3.8,0-6.8,3-6.8,6.8c0,3.8,3,6.8,6.8,6.8c1.2,0,57.7,0,59,0
			c3.8,0,6.8-3,6.8-6.8C414.3,395.3,411.3,392.2,407.5,392.2z"/>
		<path class="st3" id="f1-p-4" d="M407.5,406.7c-1.2,0-57.7,0-59,0c-3.8,0-6.8,3-6.8,6.8c0,3.8,3,6.8,6.8,6.8c1.2,0,57.7,0,59,0
			c3.8,0,6.8-3,6.8-6.8C414.3,409.8,411.3,406.7,407.5,406.7z"/>
		<path class="st3" id="f1-p-5" d="M407.5,421.2c-1.2,0-57.7,0-59,0c-3.8,0-6.8,3-6.8,6.8c0,3.8,3,6.8,6.8,6.8c1.2,0,57.7,0,59,0
			c3.8,0,6.8-3,6.8-6.8C414.3,424.3,411.3,421.2,407.5,421.2z"/>
	</g>
	<g>
		<path class="st3" id="f1-p-6" d="M484.6,363.2c-1.2,0-57.7,0-59,0c-3.8,0-6.8,3-6.8,6.8c0,3.8,3,6.8,6.8,6.8c1.2,0,57.7,0,59,0
			c3.8,0,6.8-3,6.8-6.8C491.4,366.2,488.4,363.2,484.6,363.2z"/>
		<path class="st3" id="f1-p-7" d="M484.6,377.7c-1.2,0-57.7,0-59,0c-3.8,0-6.8,3-6.8,6.8c0,3.8,3,6.8,6.8,6.8c1.2,0,57.7,0,59,0
			c3.8,0,6.8-3,6.8-6.8C491.4,380.7,488.4,377.7,484.6,377.7z"/>
		<path class="st3" id="f1-p-8" d="M484.6,392.2c-1.2,0-57.7,0-59,0c-3.8,0-6.8,3-6.8,6.8c0,3.8,3,6.8,6.8,6.8c1.2,0,57.7,0,59,0
			c3.8,0,6.8-3,6.8-6.8C491.4,395.3,488.4,392.2,484.6,392.2z"/>
		<path class="st3" id="f1-p-9" d="M484.6,406.7c-1.2,0-57.7,0-59,0c-3.8,0-6.8,3-6.8,6.8c0,3.8,3,6.8,6.8,6.8c1.2,0,57.7,0,59,0
			c3.8,0,6.8-3,6.8-6.8C491.4,409.8,488.4,406.7,484.6,406.7z"/>
		<path class="st3" id="f1-p-10" d="M484.6,421.2c-1.2,0-57.7,0-59,0c-3.8,0-6.8,3-6.8,6.8c0,3.8,3,6.8,6.8,6.8c1.2,0,57.7,0,59,0
			c3.8,0,6.8-3,6.8-6.8C491.4,424.3,488.4,421.2,484.6,421.2z"/>
	</g>
	<g>
		<path class="st3" id="f1-p-11" d="M561.8,363.2c-1.2,0-57.7,0-59,0c-3.8,0-6.8,3-6.8,6.8c0,3.8,3,6.8,6.8,6.8c1.2,0,57.7,0,59,0
			c3.8,0,6.8-3,6.8-6.8C568.6,366.2,565.5,363.2,561.8,363.2z"/>
		<path class="st3" id="f1-p-12" d="M561.8,377.7c-1.2,0-57.7,0-59,0c-3.8,0-6.8,3-6.8,6.8c0,3.8,3,6.8,6.8,6.8c1.2,0,57.7,0,59,0
			c3.8,0,6.8-3,6.8-6.8C568.6,380.7,565.5,377.7,561.8,377.7z"/>
		<path class="st3" id="f1-p-13" d="M561.8,392.2c-1.2,0-57.7,0-59,0c-3.8,0-6.8,3-6.8,6.8c0,3.8,3,6.8,6.8,6.8c1.2,0,57.7,0,59,0
			c3.8,0,6.8-3,6.8-6.8C568.6,395.3,565.5,392.2,561.8,392.2z"/>
		<path class="st3" id="f1-p-14" d="M561.8,406.7c-1.2,0-57.7,0-59,0c-3.8,0-6.8,3-6.8,6.8c0,3.8,3,6.8,6.8,6.8c1.2,0,57.7,0,59,0
			c3.8,0,6.8-3,6.8-6.8C568.6,409.8,565.5,406.7,561.8,406.7z"/>
		<path class="st3" id="f1-p-15" d="M561.8,421.2c-1.2,0-57.7,0-59,0c-3.8,0-6.8,3-6.8,6.8c0,3.8,3,6.8,6.8,6.8c1.2,0,57.7,0,59,0
			c3.8,0,6.8-3,6.8-6.8C568.6,424.3,565.5,421.2,561.8,421.2z"/>
	</g>
	<g>
		<path class="st3" id="f1-p-16" d="M638.9,363.2c-1.2,0-57.7,0-59,0c-3.8,0-6.8,3-6.8,6.8c0,3.8,3,6.8,6.8,6.8c1.2,0,57.7,0,59,0
			c3.8,0,6.8-3,6.8-6.8C645.7,366.2,642.6,363.2,638.9,363.2z"/>
		<path class="st3" id="f1-p-17" d="M638.9,377.7c-1.2,0-57.7,0-59,0c-3.8,0-6.8,3-6.8,6.8c0,3.8,3,6.8,6.8,6.8c1.2,0,57.7,0,59,0
			c3.8,0,6.8-3,6.8-6.8C645.7,380.7,642.6,377.7,638.9,377.7z"/>
		<path class="st3" id="f1-p-18" d="M638.9,392.2c-1.2,0-57.7,0-59,0c-3.8,0-6.8,3-6.8,6.8c0,3.8,3,6.8,6.8,6.8c1.2,0,57.7,0,59,0
			c3.8,0,6.8-3,6.8-6.8C645.7,395.3,642.6,392.2,638.9,392.2z"/>
		<path class="st3" id="f1-p-19" d="M638.9,406.7c-1.2,0-57.7,0-59,0c-3.8,0-6.8,3-6.8,6.8c0,3.8,3,6.8,6.8,6.8c1.2,0,57.7,0,59,0
			c3.8,0,6.8-3,6.8-6.8C645.7,409.8,642.6,406.7,638.9,406.7z"/>
		<path class="st3" id="f1-p-20" d="M638.9,421.2c-1.2,0-57.7,0-59,0c-3.8,0-6.8,3-6.8,6.8c0,3.8,3,6.8,6.8,6.8c1.2,0,57.7,0,59,0
			c3.8,0,6.8-3,6.8-6.8C645.7,424.3,642.6,421.2,638.9,421.2z"/>
	</g>
	<g>
		<path class="st3" id="f1-p-21" d="M716,363.2c-1.2,0-57.7,0-59,0c-3.8,0-6.8,3-6.8,6.8c0,3.8,3,6.8,6.8,6.8c1.2,0,57.7,0,59,0
			c3.8,0,6.8-3,6.8-6.8C722.8,366.2,719.8,363.2,716,363.2z"/>
		<path class="st3" id="f1-p-22" d="M716,377.7c-1.2,0-57.7,0-59,0c-3.8,0-6.8,3-6.8,6.8c0,3.8,3,6.8,6.8,6.8c1.2,0,57.7,0,59,0
			c3.8,0,6.8-3,6.8-6.8C722.8,380.7,719.8,377.7,716,377.7z"/>
		<path class="st3" id="f1-p-23" d="M716,392.2c-1.2,0-57.7,0-59,0c-3.8,0-6.8,3-6.8,6.8c0,3.8,3,6.8,6.8,6.8c1.2,0,57.7,0,59,0
			c3.8,0,6.8-3,6.8-6.8C722.8,395.3,719.8,392.2,716,392.2z"/>
		<path class="st3" id="f1-p-24" d="M716,406.7c-1.2,0-57.7,0-59,0c-3.8,0-6.8,3-6.8,6.8c0,3.8,3,6.8,6.8,6.8c1.2,0,57.7,0,59,0
			c3.8,0,6.8-3,6.8-6.8C722.8,409.8,719.8,406.7,716,406.7z"/>
		<path class="st3" id="f1-p-25" d="M716,421.2c-1.2,0-57.7,0-59,0c-3.8,0-6.8,3-6.8,6.8c0,3.8,3,6.8,6.8,6.8c1.2,0,57.7,0,59,0
			c3.8,0,6.8-3,6.8-6.8C722.8,424.3,719.8,421.2,716,421.2z"/>
	</g>
	<g>
		<path class="st3" id="f1-p-26" d="M793.1,363.2c-1.2,0-57.7,0-59,0c-3.8,0-6.8,3-6.8,6.8c0,3.8,3,6.8,6.8,6.8c1.2,0,57.7,0,59,0
			c3.8,0,6.8-3,6.8-6.8C799.9,366.2,796.9,363.2,793.1,363.2z"/>
		<path class="st3" id="f1-p-27" d="M793.1,377.7c-1.2,0-57.7,0-59,0c-3.8,0-6.8,3-6.8,6.8c0,3.8,3,6.8,6.8,6.8c1.2,0,57.7,0,59,0
			c3.8,0,6.8-3,6.8-6.8C799.9,380.7,796.9,377.7,793.1,377.7z"/>
		<path class="st3" id="f1-p-28" d="M793.1,392.2c-1.2,0-57.7,0-59,0c-3.8,0-6.8,3-6.8,6.8c0,3.8,3,6.8,6.8,6.8c1.2,0,57.7,0,59,0
			c3.8,0,6.8-3,6.8-6.8C799.9,395.3,796.9,392.2,793.1,392.2z"/>
		<path class="st3" id="f1-p-29" d="M793.1,406.7c-1.2,0-57.7,0-59,0c-3.8,0-6.8,3-6.8,6.8c0,3.8,3,6.8,6.8,6.8c1.2,0,57.7,0,59,0
			c3.8,0,6.8-3,6.8-6.8C799.9,409.8,796.9,406.7,793.1,406.7z"/>
		<path class="st3" id="f1-p-30" d="M793.1,421.2c-1.2,0-57.7,0-59,0c-3.8,0-6.8,3-6.8,6.8c0,3.8,3,6.8,6.8,6.8c1.2,0,57.7,0,59,0
			c3.8,0,6.8-3,6.8-6.8C799.9,424.3,796.9,421.2,793.1,421.2z"/>
	</g>
	<g>
		<path class="st3" id="f1-p-31" d="M793.1,276.9c-1.2,0-57.7,0-59,0c-3.8,0-6.8,3-6.8,6.8c0,3.8,3,6.8,6.8,6.8c1.2,0,57.7,0,59,0
			c3.8,0,6.8-3,6.8-6.8C799.9,279.9,796.9,276.9,793.1,276.9z"/>
		<path class="st3" id="f1-p-32" d="M793.1,291.4c-1.2,0-57.7,0-59,0c-3.8,0-6.8,3-6.8,6.8c0,3.8,3,6.8,6.8,6.8c1.2,0,57.7,0,59,0
			c3.8,0,6.8-3,6.8-6.8C799.9,294.4,796.9,291.4,793.1,291.4z"/>
		<path class="st3" id="f1-p-33" d="M793.1,305.9c-1.2,0-57.7,0-59,0c-3.8,0-6.8,3-6.8,6.8s3,6.8,6.8,6.8c1.2,0,57.7,0,59,0c3.8,0,6.8-3,6.8-6.8
			S796.9,305.9,793.1,305.9z"/>
		<path class="st3" id="f1-p-34" d="M793.1,320.4c-1.2,0-57.7,0-59,0c-3.8,0-6.8,3-6.8,6.8c0,3.8,3,6.8,6.8,6.8c1.2,0,57.7,0,59,0
			c3.8,0,6.8-3,6.8-6.8C799.9,323.4,796.9,320.4,793.1,320.4z"/>
		<path class="st3" id="f1-p-35" d="M793.1,334.9c-1.2,0-57.7,0-59,0c-3.8,0-6.8,3-6.8,6.8c0,3.8,3,6.8,6.8,6.8c1.2,0,57.7,0,59,0
			c3.8,0,6.8-3,6.8-6.8C799.9,338,796.9,334.9,793.1,334.9z"/>
	</g>
	<g>
		<path class="st3" id="f1-p-36" d="M870.2,363.2c-1.2,0-57.7,0-59,0c-3.8,0-6.8,3-6.8,6.8c0,3.8,3,6.8,6.8,6.8c1.2,0,57.7,0,59,0
			c3.8,0,6.8-3,6.8-6.8C877,366.2,874,363.2,870.2,363.2z"/>
		<path class="st3" id="f1-p-37" d="M870.2,377.7c-1.2,0-57.7,0-59,0c-3.8,0-6.8,3-6.8,6.8c0,3.8,3,6.8,6.8,6.8c1.2,0,57.7,0,59,0
			c3.8,0,6.8-3,6.8-6.8C877,380.7,874,377.7,870.2,377.7z"/>
		<path class="st3" id="f1-p-38" d="M870.2,392.2c-1.2,0-57.7,0-59,0c-3.8,0-6.8,3-6.8,6.8c0,3.8,3,6.8,6.8,6.8c1.2,0,57.7,0,59,0
			c3.8,0,6.8-3,6.8-6.8C877,395.3,874,392.2,870.2,392.2z"/>
		<path class="st3" id="f1-p-39" d="M870.2,406.7c-1.2,0-57.7,0-59,0c-3.8,0-6.8,3-6.8,6.8c0,3.8,3,6.8,6.8,6.8c1.2,0,57.7,0,59,0
			c3.8,0,6.8-3,6.8-6.8C877,409.8,874,406.7,870.2,406.7z"/>
		<path class="st3" id="f1-p-40" d="M870.2,421.2c-1.2,0-57.7,0-59,0c-3.8,0-6.8,3-6.8,6.8c0,3.8,3,6.8,6.8,6.8c1.2,0,57.7,0,59,0
			c3.8,0,6.8-3,6.8-6.8C877,424.3,874,421.2,870.2,421.2z"/>
	</g>
	<g>
		<path class="st3" id="f1-p-41" d="M870.2,276.9c-1.2,0-57.7,0-59,0c-3.8,0-6.8,3-6.8,6.8c0,3.8,3,6.8,6.8,6.8c1.2,0,57.7,0,59,0
			c3.8,0,6.8-3,6.8-6.8C877,279.9,874,276.9,870.2,276.9z"/>
		<path class="st3" id="f1-p-42" d="M870.2,291.4c-1.2,0-57.7,0-59,0c-3.8,0-6.8,3-6.8,6.8c0,3.8,3,6.8,6.8,6.8c1.2,0,57.7,0,59,0
			c3.8,0,6.8-3,6.8-6.8C877,294.4,874,291.4,870.2,291.4z"/>
		<path class="st3" id="f1-p-43" d="M870.2,305.9c-1.2,0-57.7,0-59,0c-3.8,0-6.8,3-6.8,6.8s3,6.8,6.8,6.8c1.2,0,57.7,0,59,0c3.8,0,6.8-3,6.8-6.8
			S874,305.9,870.2,305.9z"/>
		<path class="st3" id="f1-p-44" d="M870.2,320.4c-1.2,0-57.7,0-59,0c-3.8,0-6.8,3-6.8,6.8c0,3.8,3,6.8,6.8,6.8c1.2,0,57.7,0,59,0
			c3.8,0,6.8-3,6.8-6.8C877,323.4,874,320.4,870.2,320.4z"/>
		<path class="st3" id="f1-p-45" d="M870.2,334.9c-1.2,0-57.7,0-59,0c-3.8,0-6.8,3-6.8,6.8c0,3.8,3,6.8,6.8,6.8c1.2,0,57.7,0,59,0
			c3.8,0,6.8-3,6.8-6.8C877,338,874,334.9,870.2,334.9z"/>
	</g>
	<g>
		<path class="st3" id="f1-p-46" d="M933.7,291.4c-1.2,0-44.1,0-45.4,0c-3.8,0-6.8,3-6.8,6.8c0,3.8,3,6.8,6.8,6.8c1.2,0,44.1,0,45.4,0
			c3.8,0,6.8-3,6.8-6.8C940.6,294.4,937.5,291.4,933.7,291.4z"/>
		<path class="st3" id="f1-p-47" d="M933.7,305.9c-1.2,0-44.1,0-45.4,0c-3.8,0-6.8,3-6.8,6.8s3,6.8,6.8,6.8c1.2,0,44.1,0,45.4,0
			c3.8,0,6.8-3,6.8-6.8S937.5,305.9,933.7,305.9z"/>
		<path class="st3" id="f1-p-48" d="M942.8,320.4c-1.2,0-53.2,0-54.4,0c-3.8,0-6.8,3-6.8,6.8c0,3.8,3,6.8,6.8,6.8c1.2,0,53.2,0,54.4,0
			c3.8,0,6.8-3,6.8-6.8C949.6,323.4,946.6,320.4,942.8,320.4z"/>
		<path class="st3" id="f1-p-49" d="M942.8,334.9c-1.2,0-53.2,0-54.4,0c-3.8,0-6.8,3-6.8,6.8c0,3.8,3,6.8,6.8,6.8c1.2,0,53.2,0,54.4,0
			c3.8,0,6.8-3,6.8-6.8C949.6,338,946.6,334.9,942.8,334.9z"/>
	</g>
	<g>
		<path class="st3" id="f1-p-50" d="M947.4,363.2c-1.2,0-57.7,0-59,0c-3.8,0-6.8,3-6.8,6.8c0,3.8,3,6.8,6.8,6.8c1.2,0,57.7,0,59,0
			c3.8,0,6.8-3,6.8-6.8C954.2,366.2,951.1,363.2,947.4,363.2z"/>
		<path class="st3" id="f1-p-51" d="M947.4,377.7c-1.2,0-57.7,0-59,0c-3.8,0-6.8,3-6.8,6.8c0,3.8,3,6.8,6.8,6.8c1.2,0,57.7,0,59,0
			c3.8,0,6.8-3,6.8-6.8C954.2,380.7,951.1,377.7,947.4,377.7z"/>
		<path class="st3" id="f1-p-52" d="M947.4,392.2c-1.2,0-57.7,0-59,0c-3.8,0-6.8,3-6.8,6.8c0,3.8,3,6.8,6.8,6.8c1.2,0,57.7,0,59,0
			c3.8,0,6.8-3,6.8-6.8C954.2,395.3,951.1,392.2,947.4,392.2z"/>
		<path class="st3" id="f1-p-53" d="M947.4,406.7c-1.2,0-57.7,0-59,0c-3.8,0-6.8,3-6.8,6.8c0,3.8,3,6.8,6.8,6.8c1.2,0,57.7,0,59,0
			c3.8,0,6.8-3,6.8-6.8C954.2,409.8,951.1,406.7,947.4,406.7z"/>
		<path class="st3" id="f1-p-54" d="M947.4,421.2c-1.2,0-57.7,0-59,0c-3.8,0-6.8,3-6.8,6.8c0,3.8,3,6.8,6.8,6.8c1.2,0,57.7,0,59,0
			c3.8,0,6.8-3,6.8-6.8C954.2,424.3,951.1,421.2,947.4,421.2z"/>
	</g>
	<polygon class="st4" points="789.2,90.3 752.3,108.1 768.4,141.7 810.6,116.7 	"/>
	<polygon class="st4" points="777.8,161.3 805.9,219.8 865.6,184.3 824.4,133.6 	"/>
	<polygon class="st5" points="810.6,116.7 768.4,141.7 777.8,161.3 824.4,133.6 	"/>
	<polygon class="st5" points="140.1,359.7 162.7,359.7 162.7,434.9 136.2,434.9 	"/>
	<g>
		<path class="st4" d="M788.9,91.6l75.2,92.4l-57.8,34.3l-52.7-109.8L788.9,91.6 M789.2,90.3l-36.9,17.7l53.6,111.7l59.8-35.5
			L789.2,90.3L789.2,90.3z"/>
	</g>
	<g>
		<path class="st2" d="M336.2,360.7v73.1h-299l7.7-73.1H336.2 M337.2,359.7H44l-7.9,75.1h301.1V359.7L337.2,359.7z"/>
	</g>
	<polygon class="st6" points="807.8,223.7 828.5,266.9 932.9,266.9 868.4,187.7 	"/>
</g>
<g>
	<g>
		<g>
			<g>
				<circle class="st2" cx="42.2" cy="115.4" r="8.5"/>
				<path class="st6" d="M42.2,107.9c4.1,0,7.5,3.4,7.5,7.5c0,4.1-3.4,7.5-7.5,7.5c-4.1,0-7.5-3.4-7.5-7.5
					C34.7,111.3,38,107.9,42.2,107.9 M42.2,105.9c-5.2,0-9.5,4.3-9.5,9.5s4.3,9.5,9.5,9.5s9.5-4.3,9.5-9.5S47.4,105.9,42.2,105.9
					L42.2,105.9z"/>
			</g>
			<g>
				<circle class="st7" cx="42.2" cy="145.4" r="8.5"/>
				<g>
					<path class="st6" d="M42.2,137.9c4.1,0,7.5,3.4,7.5,7.5c0,4.1-3.4,7.5-7.5,7.5c-4.1,0-7.5-3.4-7.5-7.5
						C34.7,141.3,38,137.9,42.2,137.9 M42.2,135.9c-5.2,0-9.5,4.3-9.5,9.5s4.3,9.5,9.5,9.5s9.5-4.3,9.5-9.5S47.4,135.9,42.2,135.9
						L42.2,135.9z"/>
				</g>
			</g>
		</g>
	</g>
</g>
<g>
	<rect x="145.9" y="392.3" class="st8" width="10" height="10"/>
	
		<rect x="790.7" y="133.1" transform="matrix(0.8616 -0.5075 0.5075 0.8616 39.9973 422.9388)" class="st8" width="10" height="10"/>
	<rect x="981.9" y="424.3" class="st8" width="10" height="10"/>
	<rect x="959.1" y="414.3" class="st8" width="10" height="20"/>
	
		<rect x="847.7" y="248.1" transform="matrix(-1.836970e-16 1 -1 -1.836970e-16 1110.8005 -594.6313)" class="st8" width="10" height="20"/>
	
		<rect x="831.6" y="208" transform="matrix(0.5075 0.8616 -0.8616 0.5075 602.3049 -617.7587)" class="st8" width="20" height="20"/>
	
		<rect x="814.3" y="218.2" transform="matrix(0.5075 0.8616 -0.8616 0.5075 602.5648 -597.912)" class="st8" width="20" height="20"/>
	
		<rect x="859.9" y="200.1" transform="matrix(0.5075 0.8616 -0.8616 0.5075 606.9537 -641.7272)" class="st8" width="10" height="20"/>
	
		<rect x="897.2" y="230.6" transform="matrix(-0.7785 0.6276 -0.6276 -0.7785 1755.6066 -138.3535)" class="st8" width="10" height="20"/>
	<g>
		<text transform="matrix(1 0 0 1 225.0275 402.3205)" class="st6 st9 st10">Sea Water</text>
	</g>
	<g>
		<text transform="matrix(1 0 0 1 63.1994 402.3205)" class="st6 st9 st10">Sea Water</text>
	</g>
	<g>
		<text transform="matrix(1 0 0 1 807.9448 167.6906)"><tspan x="0" y="0" class="st6 st9 st10">Main</tspan><tspan x="-13.6" y="14" class="st6 st9 st10">Duscharge</tspan></text>
	</g>
</g>
<g>
	<text transform="matrix(1 0 0 1 736.05 508.6804)"><tspan x="0" y="0" class="st6 st9 st11">A.</tspan><tspan x="0.6" y="18" class="st6 st9 st11">B.</tspan><tspan x="0" y="36" class="st6 st9 st11">C.</tspan><tspan x="0.1" y="54" class="st6 st9 st11">D.</tspan></text>
	<text transform="matrix(1 0 0 1 865.4977 508.6804)"><tspan x="0" y="0" class="st6 st9 st11">E.</tspan><tspan x="0.1" y="18" class="st6 st9 st11">F.</tspan><tspan x="-0.9" y="36" class="st6 st9 st11">G.</tspan><tspan x="-0.7" y="54" class="st6 st9 st11">H.</tspan></text>
	<text transform="matrix(1 0 0 1 753.558 508.6804)"><tspan x="0" y="0" class="st6 st9 st11">POS JAGA</tspan><tspan x="0" y="18" class="st6 st9 st11">KANTOR</tspan><tspan x="0" y="36" class="st6 st9 st11">WISMA</tspan><tspan x="0" y="54" class="st6 st9 st11">RUMAH GENSET</tspan></text>
	<text transform="matrix(1 0 0 1 736.8666 477.782)" class="st6 st9 st11">KETERANGAN BANGUNNAN</text>
	<text transform="matrix(1 0 0 1 882.8027 508.6804)"><tspan x="0" y="0" class="st6 st9 st11">GUDANG PERALATAN</tspan><tspan x="0" y="18" class="st6 st9 st11">GUDANG PAKAN</tspan><tspan x="0" y="36" class="st6 st9 st11">RUMAH SORTIR</tspan><tspan x="0" y="54" class="st6 st9 st11">RUMAH POMPA</tspan></text>
</g>
<text transform="matrix(1 0 0 1 147.3769 413.8205)" class="st12 st9 st10">H</text>
<text transform="matrix(1 0 0 1 977.7734 422.2195)" class="st12 st9 st10">A</text>
<text transform="matrix(1 0 0 1 961.0663 428.0486)" class="st12 st9 st10">B</text>
<text transform="matrix(1 0 0 1 849.2411 261.7981)" class="st12 st9 st10">C</text>
<text transform="matrix(1 0 0 1 821.4118 231.7981)" class="st12 st9 st10">E</text>
<text transform="matrix(1 0 0 1 838.7194 221.8606)" class="st12 st9 st10">F</text>
<text transform="matrix(1 0 0 1 861.1467 213.614)" class="st12 st9 st10">G</text>
<text transform="matrix(1 0 0 1 898.9623 244.0251)" class="st12 st9 st10">D</text>
<g>
	<text transform="matrix(1 0 0 1 802.5146 135.3081)" class="st12 st9 st10">H</text>
</g>
<g class="st13">
	<text transform="matrix(1 0 0 1 84.5024 597.9604)" class="st14 st15 st16">養殖場設定</text>
</g>
<text transform="matrix(1 0 0 1 59.7909 120.8423)"><tspan x="0" y="0" class="st6 st9 st16">{{trans('ebi.正常時')}} </tspan><tspan x="0" y="30" class="st6 st9 st16">{{trans('ebi.異常検出')}}</tspan></text>
</svg>
